# Alias OBJ Model File
# Exported from SketchUp, (c) 2000-2012 Trimble Navigation Limited
# File units = millimeters

mtllib Wheel2.mtl

g Mesh1 Model

usemtl FrontColor
v 33.153 0 -185.137
vt -1.30524 7.28884
vn 0 -1 -0
v 29.5348 0 -135.035
vt -1.16279 5.31633
v 28.0459 0 -160.324
vt -1.10417 6.31196
f 1/1/1 2/2/1 3/3/1

v 37.5183 0 -110.993
vt -1.4771 4.3698
f 2/2/1 1/1/1 4/4/1

v 44.5081 0 -207.782
vt -1.75229 8.18039
f 4/4/1 1/1/1 5/5/1

vt -8.09802 0
vn -0.827762 0 -0.56108
vt -7.10066 0
vn -0.944774 0 -0.327721
v 33.153 43.3084 -185.137
vt -7.10066 1.70505
v 44.5081 43.3084 -207.782
vt -8.09802 1.70505
f 5/6/2 1/7/3 6/8/3 7/9/2 

vt -7.40232 0
vt -6.40497 0
vn -0.997403 0 -0.0720288
v 28.0459 43.3084 -160.324
vt -6.40497 1.70505
vt -7.40232 1.70505
f 1/10/3 3/11/4 8/12/4 6/13/3 

vt -6.23615 0
vt -5.2388 0
vn -0.982059 0 0.188572
v 29.5348 43.3084 -135.035
vt -5.2388 1.70505
vt -6.23615 1.70505
f 3/14/4 2/15/5 9/16/5 8/17/4 

vt -4.67899 0
vt -3.68163 0
vn -0.89979 0 0.436323
v 37.5183 43.3084 -110.993
vt -3.68163 1.70505
vt -4.67899 1.70505
f 2/18/5 4/19/6 10/20/6 9/21/5 

vt -2.83694 0
v 51.4523 0 -89.8364
vt -1.83959 0
vn -0.756202 0 0.654338
v 51.4523 43.3084 -89.8364
vt -1.83959 1.70505
vt -2.83694 1.70505
f 4/22/6 11/23/7 12/24/7 10/25/6 

vt -2.02568 3.53687
f 4/4/1 5/5/1 11/26/1

v 53.4692 0 -158.488
vt -2.10509 6.23968
f 11/26/1 5/5/1 13/27/1

v 61.3373 0 -226.717
vt -2.41485 8.92586
f 13/27/1 5/5/1 14/28/1

vt -8.27583 0
vn -0.654338 0 -0.756202
vt -7.27847 0
vt -7.27847 1.70505
v 61.3373 43.3084 -226.717
vt -8.27583 1.70505
f 14/29/8 5/30/2 7/31/2 15/32/8 

vt 1.75229 8.18039
vn 0 1 -0
v 53.4692 43.3084 -158.488
vt 2.10509 6.23968
vt 2.41485 8.92586
f 7/33/9 16/34/9 15/35/9

vt 2.02568 3.53687
f 7/33/9 12/36/9 16/34/9

vt 1.4771 4.3698
f 7/33/9 10/37/9 12/36/9

vt 1.30524 7.28884
f 6/38/9 10/37/9 7/33/9

vt 1.16279 5.31633
f 6/38/9 9/39/9 10/37/9

vt 1.10417 6.31196
f 9/39/9 6/38/9 8/40/9

v 54.5671 43.3084 -139.841
vt 2.14831 5.50557
f 12/36/9 17/41/9 16/34/9

v 70.3872 43.3084 -73.0072
vt 2.77115 2.8743
f 17/41/9 12/36/9 18/42/9

vt -0.835544 0
v 70.3872 0 -73.0072
vt 0.161811 0
vn -0.56108 0 0.827762
vt 0.161811 1.70505
vt -0.835544 1.70505
f 11/43/7 19/44/10 18/45/10 12/46/7 

v 54.5671 0 -139.841
vt -2.14831 5.50557
vt -2.77115 2.8743
f 11/26/1 20/47/1 19/48/1

f 20/47/1 11/26/1 13/27/1

vt 5.36979 0
vn 0.982059 0 -0.188572
vt 6.10517 0
vn 0.997403 0 0.0720288
vt 6.10517 1.70505
vt 5.36979 1.70505
f 20/49/11 13/50/12 16/51/12 17/52/11 

vt 6.53595 0
v 57.2348 0 -176.783
vt 7.27134 0
vn 0.944774 0 0.327721
v 57.2348 43.3084 -176.783
vt 7.27134 1.70505
vt 6.53595 1.70505
f 13/53/12 21/54/13 22/55/13 16/56/12 

vt -2.25334 6.95997
f 13/27/1 14/28/1 21/57/1

v 65.6073 0 -193.48
vt -2.58297 7.61734
f 21/57/1 14/28/1 23/58/1

v 82.4938 0 -240.651
vt -3.24779 9.47444
f 23/58/1 14/28/1 24/59/1

vt -7.92364 0
vn -0.436323 0 -0.89979
vt -6.92629 0
vt -6.92629 1.70505
v 82.4938 43.3084 -240.651
vt -7.92364 1.70505
f 24/60/14 14/61/8 15/62/8 25/63/14 

v 65.6073 43.3084 -193.48
vt 2.58297 7.61734
vt 3.24779 9.47444
f 15/35/9 26/64/9 25/65/9

vt 2.25334 6.95997
f 15/35/9 22/66/9 26/64/9

f 15/35/9 16/34/9 22/66/9

vt 7.23165 0
vt 7.96703 0
vn 0.827762 0 0.56108
vt 7.96703 1.70505
vt 7.23165 1.70505
f 21/67/13 23/68/15 26/69/15 22/70/13 

vt 7.40946 0
v 78.016 0 -207.442
vt 8.14484 0
vn 0.654338 0 0.756202
v 78.016 43.3084 -207.442
vt 8.14484 1.70505
vt 7.40946 1.70505
f 23/71/15 27/72/16 28/73/16 26/74/15 

vt -3.0715 8.16699
f 23/58/1 24/59/1 27/75/1

v 93.6154 0 -217.716
vt -3.68565 8.57148
f 27/75/1 24/59/1 29/76/1

v 106.536 0 -248.634
vt -4.19432 9.78875
f 29/76/1 24/59/1 30/77/1

vt -7.06546 0
vn -0.188572 0 -0.982059
vt -6.0681 0
vt -6.0681 1.70505
v 106.536 43.3084 -248.634
vt -7.06546 1.70505
f 30/78/17 24/79/14 25/80/14 31/81/17 

v 93.6154 43.3084 -217.716
vt 3.68565 8.57148
vt 4.19432 9.78875
f 25/65/9 32/82/9 31/83/9

vt 3.0715 8.16699
f 25/65/9 28/84/9 32/82/9

f 25/65/9 26/64/9 28/84/9

vt 7.05727 0
vt 7.79266 0
vn 0.436323 0 0.89979
vt 7.79266 1.70505
vt 7.05727 1.70505
f 27/85/16 29/86/18 32/87/18 28/88/16 

vt 6.19909 0
v 111.342 0 -223.602
vt 6.93447 0
vn 0.188572 0 0.982059
v 111.342 43.3084 -223.602
vt 6.93447 1.70505
vt 6.19909 1.70505
f 29/89/18 33/90/19 34/91/19 32/92/18 

vt -4.38356 8.80323
f 29/76/1 30/77/1 33/93/1

v 131.825 0 -250.123
vt -5.18995 9.84737
f 33/93/1 30/77/1 35/94/1

vt -5.75975 0
vn 0.0720288 0 -0.997403
vt -4.7624 0
vt -4.7624 1.70505
v 131.825 43.3084 -250.123
vt -5.75975 1.70505
f 35/95/20 30/96/17 31/97/17 36/98/20 

vt 4.38356 8.80323
vt 5.18995 9.84737
f 31/83/9 34/99/9 36/100/9

f 31/83/9 32/82/9 34/99/9

v 129.989 43.3084 -224.7
vt 5.11767 8.84645
f 36/100/9 34/99/9 37/101/9

vt 4.89339 0
v 129.989 0 -224.7
vt 5.62877 0
vn -0.0720288 0 0.997403
vt 5.62877 1.70505
vt 4.89339 1.70505
f 33/102/19 38/103/21 37/104/21 34/105/19 

vt -5.11767 8.84645
f 33/93/1 35/94/1 38/106/1

v 148.284 0 -220.934
vt -5.83795 8.6982
f 38/106/1 35/94/1 39/107/1

v 156.637 0 -245.016
vt -6.16683 9.6463
f 39/107/1 35/94/1 40/108/1

vt -4.09552 0
vn 0.327721 0 -0.944774
vt -3.09816 0
vt -3.09816 1.70505
v 156.637 43.3084 -245.016
vt -4.09552 1.70505
f 40/109/22 35/110/20 36/111/20 41/112/22 

v 148.284 43.3084 -220.934
vt 5.83795 8.6982
vt 6.16683 9.6463
f 36/100/9 42/113/9 41/114/9

f 36/100/9 37/101/9 42/113/9

vt 3.22915 0
vt 3.96453 0
vn -0.327721 0 0.944774
vt 3.96453 1.70505
vt 3.22915 1.70505
f 38/115/21 39/116/23 42/117/23 37/118/21 

vt 1.3198 0
v 164.981 0 -212.562
vt 2.05518 0
v 164.981 43.3084 -212.562
vt 2.05518 1.70505
vt 1.3198 1.70505
f 39/119/23 43/120/10 44/121/10 42/122/23 

vt -6.49532 8.36858
f 39/107/1 40/108/1 43/123/1

v 179.283 0 -233.661
vt -7.05838 9.19925
f 43/123/1 40/108/1 45/124/1

vt -2.18616 0
vn 0.56108 0 -0.827762
vt -1.18881 0
vt -1.18881 1.70505
v 179.283 43.3084 -233.661
vt -2.18616 1.70505
f 45/125/24 40/126/22 41/127/22 46/128/24 

vt 6.49532 8.36858
vt 7.05838 9.19925
f 41/114/9 44/129/9 46/130/9

f 41/114/9 42/113/9 44/129/9

v 178.942 43.3084 -200.153
vt 7.04498 7.88004
f 46/130/9 44/129/9 47/131/9

vt -0.704558 0
v 178.942 0 -200.153
vt 0.0308251 0
vt 0.0308251 1.70505
vt -0.704558 1.70505
f 43/132/10 48/133/7 47/134/7 44/135/10 

vt -7.04498 7.88004
f 43/123/1 45/124/1 48/136/1

v 189.216 0 -184.554
vt -7.44947 7.26589
f 48/136/1 45/124/1 49/137/1

v 198.218 0 -216.832
vt -7.80385 8.53669
f 49/137/1 45/124/1 50/138/1

vt -0.161811 0
vn 0.756202 0 -0.654338
vt 0.835544 0
vt 0.835544 1.70505
v 198.218 43.3084 -216.832
vt -0.161811 1.70505
f 50/139/25 45/140/24 46/141/24 51/142/25 

v 189.216 43.3084 -184.554
vt 7.44947 7.26589
vt 7.80385 8.53669
f 46/130/9 52/143/9 51/144/9

f 46/130/9 47/131/9 52/143/9

vt -2.70595 0
vt -1.97057 0
vt -1.97057 1.70505
vt -2.70595 1.70505
f 48/145/7 49/146/6 52/147/6 47/148/7 

vt -4.548 0
v 195.103 0 -166.827
vt -3.81262 0
v 195.103 43.3084 -166.827
vt -3.81262 1.70505
vt -4.548 1.70505
f 49/149/6 53/150/5 54/151/5 52/152/6 

vt -7.68122 6.56798
f 49/137/1 50/138/1 53/153/1

v 196.201 0 -148.18
vt -7.72444 5.83387
f 53/153/1 50/138/1 55/154/1

v 205.162 0 -98.8863
vt -8.07724 3.89316
f 56/155/1 55/154/1 50/138/1

v 192.435 0 -129.885
vt -7.57619 5.11359
f 56/155/1 57/156/1 55/154/1

v 188.333 0 -79.9514
vt -7.41467 3.14769
f 58/157/1 57/156/1 56/155/1

v 184.063 0 -113.188
vt -7.24656 4.45622
f 58/157/1 59/158/1 57/156/1

v 171.654 0 -99.2266
vt -6.75803 3.90656
f 58/157/1 60/159/1 59/158/1

v 167.176 0 -66.0175
vt -6.58174 2.59911
f 61/160/1 60/159/1 58/157/1

v 156.055 0 -88.9527
vt -6.14388 3.50207
f 61/160/1 62/161/1 60/159/1

v 143.134 0 -58.034
vt -5.63521 2.2848
f 63/162/1 62/161/1 61/160/1

v 138.328 0 -83.0662
vt -5.44597 3.27032
f 63/162/1 64/163/1 62/161/1

v 119.681 0 -81.9684
vt -4.71186 3.2271
f 63/162/1 65/164/1 64/163/1

v 117.845 0 -56.5451
vt -4.63958 2.22618
f 66/165/1 65/164/1 63/162/1

v 101.386 0 -85.734
vt -3.99158 3.37535
f 66/165/1 67/166/1 65/164/1

v 93.0326 0 -61.6521
vt -3.6627 2.42725
f 68/167/1 67/166/1 66/165/1

v 84.6888 0 -94.1064
vt -3.33421 3.70498
f 68/167/1 69/168/1 67/166/1

v 70.7275 0 -106.515
vt -2.78455 4.19351
f 68/167/1 70/169/1 69/168/1

f 19/48/1 70/169/1 68/167/1

v 60.4535 0 -122.115
vt -2.38006 4.80766
f 19/48/1 71/170/1 70/169/1

f 19/48/1 20/47/1 71/170/1

vt 3.81262 0
vn 0.89979 0 -0.436323
vt 4.548 0
vt 4.548 1.70505
v 60.4535 43.3084 -122.115
vt 3.81262 1.70505
f 71/171/26 20/172/11 17/173/11 72/174/26 

vt 2.38006 4.80766
f 17/41/9 18/42/9 72/175/9

v 70.7275 43.3084 -106.515
vt 2.78455 4.19351
f 72/175/9 18/42/9 73/176/9

v 93.0326 43.3084 -61.6521
vt 3.6627 2.42725
f 73/176/9 18/42/9 74/177/9

vt 1.18881 0
vt 2.18616 0
vt 2.18616 1.70505
vt 1.18881 1.70505
f 19/178/10 68/179/23 74/180/23 18/181/10 

vt 3.09816 0
vt 4.09552 0
v 117.845 43.3084 -56.5451
vt 4.09552 1.70505
vt 3.09816 1.70505
f 68/182/23 66/183/21 75/184/21 74/185/23 

vt 4.7624 0
vt 5.75975 0
v 143.134 43.3084 -58.034
vt 5.75975 1.70505
vt 4.7624 1.70505
f 66/186/21 63/187/19 76/188/19 75/189/21 

vt 6.0681 0
vt 7.06546 0
v 167.176 43.3084 -66.0175
vt 7.06546 1.70505
vt 6.0681 1.70505
f 63/190/19 61/191/18 77/192/18 76/193/19 

vt 6.92629 0
vt 7.92364 0
v 188.333 43.3084 -79.9514
vt 7.92364 1.70505
vt 6.92629 1.70505
f 61/194/18 58/195/16 78/196/16 77/197/18 

vt 7.27847 0
vt 8.27583 0
v 205.162 43.3084 -98.8863
vt 8.27583 1.70505
vt 7.27847 1.70505
f 58/198/16 56/199/15 79/200/15 78/201/16 

vt 7.10066 0
v 216.517 0 -121.532
vt 8.09802 0
v 216.517 43.3084 -121.532
vt 8.09802 1.70505
vt 7.10066 1.70505
f 56/202/15 80/203/13 81/204/13 79/205/15 

v 212.152 0 -195.675
vt -8.35243 7.70375
vt -8.52429 4.78471
f 56/155/1 82/206/1 80/207/1

f 56/155/1 50/138/1 82/206/1

vt 1.83959 0
vt 2.83694 0
vt 2.83694 1.70505
v 212.152 43.3084 -195.675
vt 1.83959 1.70505
f 82/208/26 50/209/25 51/210/25 83/211/26 

vt 8.07724 3.89316
vt 8.35243 7.70375
f 51/144/9 79/212/9 83/213/9

v 196.201 43.3084 -148.18
vt 7.72444 5.83387
f 84/214/9 79/212/9 51/144/9

v 192.435 43.3084 -129.885
vt 7.57619 5.11359
f 85/215/9 79/212/9 84/214/9

vt 7.41467 3.14769
f 85/215/9 78/216/9 79/212/9

v 184.063 43.3084 -113.188
vt 7.24656 4.45622
f 86/217/9 78/216/9 85/215/9

v 171.654 43.3084 -99.2266
vt 6.75803 3.90656
f 87/218/9 78/216/9 86/217/9

vt 6.58174 2.59911
f 87/218/9 77/219/9 78/216/9

v 156.055 43.3084 -88.9527
vt 6.14388 3.50207
f 88/220/9 77/219/9 87/218/9

vt 5.63521 2.2848
f 88/220/9 76/221/9 77/219/9

v 138.328 43.3084 -83.0662
vt 5.44597 3.27032
f 89/222/9 76/221/9 88/220/9

v 119.681 43.3084 -81.9684
vt 4.71186 3.2271
f 90/223/9 76/221/9 89/222/9

vt 4.63958 2.22618
f 90/223/9 75/224/9 76/221/9

v 101.386 43.3084 -85.734
vt 3.99158 3.37535
f 91/225/9 75/224/9 90/223/9

f 91/225/9 74/177/9 75/224/9

v 84.6888 43.3084 -94.1064
vt 3.33421 3.70498
f 92/226/9 74/177/9 91/225/9

f 73/176/9 74/177/9 92/226/9

vt -0.0308251 0
vt 0.704558 0
vt 0.704558 1.70505
vt -0.0308251 1.70505
f 69/227/24 70/228/25 73/229/25 92/230/24 

vt 1.97057 0
vt 2.70595 0
vt 2.70595 1.70505
vt 1.97057 1.70505
f 70/231/25 71/232/26 72/233/26 73/234/25 

vt -2.05518 0
vt -1.3198 0
vt -1.3198 1.70505
vt -2.05518 1.70505
f 67/235/22 69/236/24 92/237/24 91/238/22 

vt -3.96453 0
vt -3.22915 0
vt -3.22915 1.70505
vt -3.96453 1.70505
f 65/239/20 67/240/22 91/241/22 90/242/20 

vt -5.62877 0
vt -4.89339 0
vt -4.89339 1.70505
vt -5.62877 1.70505
f 64/243/17 65/244/20 90/245/20 89/246/17 

vt -6.93447 0
vt -6.19909 0
vt -6.19909 1.70505
vt -6.93447 1.70505
f 62/247/14 64/248/17 89/249/17 88/250/14 

vt -7.79266 0
vt -7.05727 0
vt -7.05727 1.70505
vt -7.79266 1.70505
f 60/251/8 62/252/14 88/253/14 87/254/8 

vt -8.14484 0
vt -7.40946 0
vt -7.40946 1.70505
vt -8.14484 1.70505
f 59/255/2 60/256/8 87/257/8 86/258/2 

vt -7.96703 0
vt -7.23165 0
vt -7.23165 1.70505
vt -7.96703 1.70505
f 57/259/3 59/260/2 86/261/2 85/262/3 

vt -7.27134 0
vt -6.53595 0
vt -6.53595 1.70505
vt -7.27134 1.70505
f 55/263/4 57/264/3 85/265/3 84/266/4 

vt -6.10517 0
vt -5.36979 0
vt -5.36979 1.70505
vt -6.10517 1.70505
f 53/267/5 55/268/4 84/269/4 54/270/5 

vt 7.68122 6.56798
f 51/144/9 54/271/9 84/214/9

f 51/144/9 52/143/9 54/271/9

vt 8.52429 4.78471
f 83/213/9 79/212/9 81/272/9

v 220.135 43.3084 -171.633
vt 8.66674 6.75722
f 83/213/9 81/272/9 93/273/9

v 221.624 43.3084 -146.344
vt 8.72536 5.76159
f 93/273/9 81/272/9 94/274/9

vt 6.40497 0
v 221.624 0 -146.344
vt 7.40232 0
vt 7.40232 1.70505
vt 6.40497 1.70505
f 80/275/13 95/276/12 94/277/12 81/278/13 

v 220.135 0 -171.633
vt -8.66674 6.75722
vt -8.72536 5.76159
f 80/207/1 96/279/1 95/280/1

f 80/207/1 82/206/1 96/279/1

vt 3.68163 0
vt 4.67899 0
vt 4.67899 1.70505
vt 3.68163 1.70505
f 96/281/11 82/282/26 83/283/26 93/284/11 

vt 5.2388 0
vt 6.23615 0
vt 6.23615 1.70505
vt 5.2388 1.70505
f 95/285/12 96/286/11 93/287/11 94/288/12 

